<svg width="29" height="29" viewBox="0 0 29 29" fill="none" xmlns="http://www.w3.org/2000/svg">
<g clip-path="url(#clip0_710_245)">
<path d="M4.91548 21.75H23.8331C24.4154 21.75 24.989 21.6098 25.5056 21.3412C26.0221 21.0726 26.4664 20.6835 26.8008 20.2069C27.1352 19.7303 27.3498 19.1802 27.4266 18.603C27.5034 18.0259 27.44 17.4388 27.2419 16.8913L23.7957 7.36358C23.2071 5.24623 21.9412 3.37994 20.1916 2.05014C18.442 0.720348 16.3049 0.000256261 14.1073 1.22925e-09V1.22925e-09C11.8196 -3.57574e-05 9.60024 0.780085 7.81573 2.21156C6.03122 3.64303 4.78823 5.64027 4.29198 7.8735L1.45239 17.0568C1.28521 17.599 1.24762 18.1729 1.34266 18.7322C1.4377 19.2916 1.66271 19.8208 1.99959 20.2773C2.33647 20.7339 2.7758 21.105 3.28225 21.3607C3.78869 21.6165 4.34811 21.7498 4.91548 21.75Z" fill="#4376FF"/>
<path d="M8.57916 24.1667C8.85649 25.5325 9.59746 26.7604 10.6765 27.6424C11.7556 28.5243 13.1064 29.0061 14.5 29.0061C15.8936 29.0061 17.2444 28.5243 18.3235 27.6424C19.4025 26.7604 20.1435 25.5325 20.4208 24.1667H8.57916Z" fill="#4376FF"/>
</g>
<defs>
<clipPath id="clip0_710_245">
<rect width="29" height="29" fill="white"/>
</clipPath>
</defs>
</svg>
