<svg width="29" height="29" viewBox="0 0 29 29" fill="none" xmlns="http://www.w3.org/2000/svg">
<g clip-path="url(#clip0_710_223)">
<path d="M28.1046 19.575L24.963 8.25175C24.2921 5.82955 22.8303 3.70134 20.8103 2.20584C18.7902 0.710343 16.328 -0.066505 13.8155 -0.00106202C11.3029 0.0643809 8.88447 0.968354 6.94502 2.56698C5.00556 4.16562 3.65655 6.36704 3.11269 8.82088L0.682728 19.7563C0.565149 20.2861 0.568017 20.8355 0.691121 21.364C0.814225 21.8926 1.05442 22.3867 1.39399 22.81C1.73357 23.2333 2.16385 23.575 2.65309 23.8098C3.14233 24.0446 3.67805 24.1666 4.22073 24.1667H8.57919C8.85652 25.5325 9.59748 26.7604 10.6765 27.6423C11.7556 28.5243 13.1064 29.0061 14.5 29.0061C15.8937 29.0061 17.2444 28.5243 18.3235 27.6423C19.4026 26.7604 20.1435 25.5325 20.4209 24.1667H24.6138C25.1722 24.1665 25.7229 24.0372 26.2231 23.7891C26.7233 23.5409 27.1595 23.1805 27.4975 22.7361C27.8355 22.2917 28.0663 21.7751 28.1718 21.2268C28.2773 20.6785 28.2548 20.1132 28.1059 19.575H28.1046ZM14.5 26.5834C13.753 26.5803 13.0251 26.3464 12.416 25.9139C11.8069 25.4813 11.3464 24.8711 11.0974 24.1667H17.9027C17.6537 24.8711 17.1931 25.4813 16.584 25.9139C15.9749 26.3464 15.2471 26.5803 14.5 26.5834ZM25.5744 21.2728C25.4617 21.4222 25.3155 21.5432 25.1477 21.6261C24.9798 21.709 24.7949 21.7514 24.6077 21.75H4.22073C4.03979 21.75 3.86118 21.7094 3.69806 21.6311C3.53494 21.5528 3.39149 21.4388 3.27829 21.2977C3.16509 21.1565 3.08504 20.9918 3.04404 20.8155C3.00304 20.6393 3.00213 20.4561 3.04139 20.2795L5.47135 9.34409C5.89953 7.41825 6.95918 5.69082 8.48186 4.43638C10.0045 3.18194 11.9029 2.4725 13.875 2.42084C15.8472 2.36917 17.7801 2.97825 19.3663 4.15124C20.9526 5.32423 22.1013 6.99381 22.6297 8.89459L25.7714 20.2179C25.8227 20.3969 25.8316 20.5855 25.7974 20.7686C25.7632 20.9517 25.6868 21.1243 25.5744 21.2728Z" fill="#4376FF"/>
</g>
<defs>
<clipPath id="clip0_710_223">
<rect width="29" height="29" fill="white"/>
</clipPath>
</defs>
</svg>
