<svg width="29" height="29" viewBox="0 0 29 29" fill="none" xmlns="http://www.w3.org/2000/svg">
<g clip-path="url(#clip0_710_230)">
<path d="M29 13.5901C28.8253 10.7626 27.8269 8.04807 26.128 5.78113C24.4292 3.51419 22.1041 1.79395 19.4393 0.832484C16.7746 -0.128984 13.8868 -0.289648 11.1319 0.370297C8.37694 1.03024 5.87535 2.48195 3.9355 4.54645C1.99566 6.61094 0.702354 9.19798 0.215034 11.9886C-0.272285 14.7793 0.0676835 17.6515 1.19303 20.2513C2.31837 22.851 4.1799 25.0647 6.54811 26.6192C8.91632 28.1738 11.6877 29.0014 14.5206 29H22.9584C24.5602 28.9984 26.096 28.3613 27.2287 27.2286C28.3614 26.0959 28.9984 24.5601 29 22.9583V13.5901ZM26.5834 22.9583C26.5834 23.9197 26.2014 24.8417 25.5216 25.5215C24.8418 26.2014 23.9198 26.5833 22.9584 26.5833H14.5206C12.8155 26.5825 11.1298 26.2224 9.57328 25.5264C8.01677 24.8303 6.62444 23.8141 5.48706 22.5438C4.34419 21.2742 3.48598 19.7749 2.96998 18.1464C2.45397 16.518 2.29211 14.798 2.49523 13.1019C2.81596 10.4266 4.01796 7.93409 5.91172 6.01736C7.80548 4.10062 10.2833 2.86866 12.9546 2.5157C13.4756 2.45039 14.0002 2.4173 14.5254 2.41661C17.3414 2.40893 20.0702 3.39283 22.2334 5.19578C23.4967 6.24576 24.5337 7.54134 25.2814 9.004C26.0292 10.4667 26.4721 12.0659 26.5834 13.7049V22.9583Z" fill="#4376FF"/>
<path d="M9.66665 10.8749H14.5C14.8204 10.8749 15.1278 10.7476 15.3544 10.521C15.581 10.2944 15.7083 9.98706 15.7083 9.66659C15.7083 9.34612 15.581 9.03877 15.3544 8.81216C15.1278 8.58556 14.8204 8.45825 14.5 8.45825H9.66665C9.34618 8.45825 9.03883 8.58556 8.81223 8.81216C8.58562 9.03877 8.45831 9.34612 8.45831 9.66659C8.45831 9.98706 8.58562 10.2944 8.81223 10.521C9.03883 10.7476 9.34618 10.8749 9.66665 10.8749Z" fill="#4376FF"/>
<path d="M19.3333 13.2917H9.66665C9.34618 13.2917 9.03883 13.4191 8.81223 13.6457C8.58562 13.8723 8.45831 14.1796 8.45831 14.5001C8.45831 14.8206 8.58562 15.1279 8.81223 15.3545C9.03883 15.5811 9.34618 15.7084 9.66665 15.7084H19.3333C19.6538 15.7084 19.9611 15.5811 20.1877 15.3545C20.4143 15.1279 20.5416 14.8206 20.5416 14.5001C20.5416 14.1796 20.4143 13.8723 20.1877 13.6457C19.9611 13.4191 19.6538 13.2917 19.3333 13.2917Z" fill="#4376FF"/>
<path d="M19.3333 18.125H9.66665C9.34618 18.125 9.03883 18.2523 8.81223 18.4789C8.58562 18.7055 8.45831 19.0129 8.45831 19.3333C8.45831 19.6538 8.58562 19.9611 8.81223 20.1878C9.03883 20.4144 9.34618 20.5417 9.66665 20.5417H19.3333C19.6538 20.5417 19.9611 20.4144 20.1877 20.1878C20.4143 19.9611 20.5416 19.6538 20.5416 19.3333C20.5416 19.0129 20.4143 18.7055 20.1877 18.4789C19.9611 18.2523 19.6538 18.125 19.3333 18.125Z" fill="#4376FF"/>
</g>
<defs>
<clipPath id="clip0_710_230">
<rect width="29" height="29" fill="white"/>
</clipPath>
</defs>
</svg>
