<svg width="29" height="29" viewBox="0 0 29 29" fill="none" xmlns="http://www.w3.org/2000/svg">
<g clip-path="url(#clip0_710_264)">
<path d="M23.774 3.33254C22.243 2.05854 20.4648 1.11544 18.5513 0.562674C16.6378 0.00990683 14.6306 -0.140549 12.6561 0.120788C9.00338 0.595322 5.66816 2.4422 3.32767 5.28642C0.987167 8.13064 -0.183169 11.759 0.0542938 15.4347C0.291756 19.1105 1.91922 22.5581 4.60622 25.0775C7.29322 27.597 10.8383 28.9994 14.5218 29H22.9583C24.5601 28.998 26.0957 28.3609 27.2283 27.2283C28.3609 26.0957 28.9981 24.56 29 22.9583V13.665V13.5889C28.8721 11.6138 28.3427 9.68554 27.4441 7.92205C26.5456 6.15856 25.2967 4.59689 23.774 3.33254ZM9.66668 8.45829H14.5C14.8205 8.45829 15.1278 8.58559 15.3544 8.8122C15.581 9.03881 15.7083 9.34615 15.7083 9.66662C15.7083 9.98709 15.581 10.2944 15.3544 10.521C15.1278 10.7476 14.8205 10.875 14.5 10.875H9.66668C9.34621 10.875 9.03886 10.7476 8.81226 10.521C8.58565 10.2944 8.45834 9.98709 8.45834 9.66662C8.45834 9.34615 8.58565 9.03881 8.81226 8.8122C9.03886 8.58559 9.34621 8.45829 9.66668 8.45829ZM19.3333 20.5416H9.66668C9.34621 20.5416 9.03886 20.4143 8.81226 20.1877C8.58565 19.9611 8.45834 19.6538 8.45834 19.3333C8.45834 19.0128 8.58565 18.7055 8.81226 18.4789C9.03886 18.2523 9.34621 18.125 9.66668 18.125H19.3333C19.6538 18.125 19.9612 18.2523 20.1878 18.4789C20.4144 18.7055 20.5417 19.0128 20.5417 19.3333C20.5417 19.6538 20.4144 19.9611 20.1878 20.1877C19.9612 20.4143 19.6538 20.5416 19.3333 20.5416ZM19.3333 15.7083H9.66668C9.34621 15.7083 9.03886 15.581 8.81226 15.3544C8.58565 15.1278 8.45834 14.8204 8.45834 14.5C8.45834 14.1795 8.58565 13.8721 8.81226 13.6455C9.03886 13.4189 9.34621 13.2916 9.66668 13.2916H19.3333C19.6538 13.2916 19.9612 13.4189 20.1878 13.6455C20.4144 13.8721 20.5417 14.1795 20.5417 14.5C20.5417 14.8204 20.4144 15.1278 20.1878 15.3544C19.9612 15.581 19.6538 15.7083 19.3333 15.7083Z" fill="#4376FF"/>
</g>
<defs>
<clipPath id="clip0_710_264">
<rect width="29" height="29" fill="white"/>
</clipPath>
</defs>
</svg>
