<svg width="29" height="29" viewBox="0 0 29 29" fill="none" xmlns="http://www.w3.org/2000/svg">
<g clip-path="url(#clip0_710_258)">
<path d="M14.5 18.116C12.498 18.116 10.875 19.7389 10.875 21.741V28.991H18.125V21.741C18.125 19.7389 16.502 18.116 14.5 18.116Z" fill="#4376FF"/>
<path d="M20.5417 21.741V28.991H25.375C27.377 28.991 29 27.368 29 25.366V14.3448C29.0003 13.717 28.7563 13.1138 28.3197 12.6628L18.0513 1.56179C16.2395 -0.398541 13.1816 -0.518903 11.2212 1.29292C11.1281 1.37901 11.0384 1.46867 10.9524 1.56179L0.702061 12.6592C0.252221 13.1121 -0.000169836 13.7246 8.57442e-08 14.3629V25.366C8.57442e-08 27.368 1.62298 28.991 3.625 28.991H8.45831V21.741C8.48091 18.4461 11.1412 15.7554 14.3531 15.6779C17.6724 15.5978 20.5164 18.3343 20.5417 21.741Z" fill="#4376FF"/>
<path d="M14.5 18.116C12.498 18.116 10.875 19.7389 10.875 21.741V28.991H18.125V21.741C18.125 19.7389 16.502 18.116 14.5 18.116Z" fill="#4376FF"/>
</g>
<defs>
<clipPath id="clip0_710_258">
<rect width="29" height="29" fill="white"/>
</clipPath>
</defs>
</svg>
