<svg width="29" height="29" viewBox="0 0 29 29" fill="none" xmlns="http://www.w3.org/2000/svg">
<g clip-path="url(#clip0_710_235)">
<path d="M27.9379 10.9584L18.7727 1.79201C17.6384 0.660997 16.1019 0.0258789 14.5 0.0258789C12.8982 0.0258789 11.3617 0.660997 10.2273 1.79201L1.06214 10.9584C0.72432 11.2941 0.456486 11.6935 0.274164 12.1334C0.0918421 12.5733 -0.00134173 13.0451 1.4596e-05 13.5213V25.3835C1.4596e-05 26.3449 0.381933 27.267 1.06175 27.9468C1.74157 28.6266 2.6636 29.0085 3.62501 29.0085H25.375C26.3364 29.0085 27.2585 28.6266 27.9383 27.9468C28.6181 27.267 29 26.3449 29 25.3835V13.5213C29.0014 13.0451 28.9082 12.5733 28.7259 12.1334C28.5435 11.6935 28.2757 11.2941 27.9379 10.9584ZM18.125 26.5918H10.875V21.8383C10.875 20.8769 11.2569 19.9548 11.9368 19.275C12.6166 18.5952 13.5386 18.2133 14.5 18.2133C15.4614 18.2133 16.3835 18.5952 17.0633 19.275C17.7431 19.9548 18.125 20.8769 18.125 21.8383V26.5918ZM26.5833 25.3835C26.5833 25.704 26.456 26.0113 26.2294 26.2379C26.0028 26.4645 25.6955 26.5918 25.375 26.5918H20.5417V21.8383C20.5417 20.2359 19.9052 18.6992 18.7721 17.5662C17.6391 16.4331 16.1024 15.7966 14.5 15.7966C12.8977 15.7966 11.3609 16.4331 10.2279 17.5662C9.09488 18.6992 8.45835 20.2359 8.45835 21.8383V26.5918H3.62501C3.30454 26.5918 2.9972 26.4645 2.77059 26.2379C2.54399 26.0113 2.41668 25.704 2.41668 25.3835V13.5213C2.4178 13.2011 2.54499 12.8942 2.77072 12.667L11.9359 3.50422C12.6171 2.82626 13.539 2.44565 14.5 2.44565C15.461 2.44565 16.383 2.82626 17.0641 3.50422L26.2293 12.6706C26.4542 12.8969 26.5813 13.2023 26.5833 13.5213V25.3835Z" fill="#4376FF"/>
</g>
<defs>
<clipPath id="clip0_710_235">
<rect width="29" height="29" fill="white"/>
</clipPath>
</defs>
</svg>
