<svg width="29" height="29" viewBox="0 0 29 29" fill="none" xmlns="http://www.w3.org/2000/svg">
<g clip-path="url(#clip0_710_251)">
<path d="M14.5 0C11.2964 0.00351818 8.225 1.27771 5.9597 3.54301C3.6944 5.80831 2.42021 8.87971 2.41669 12.0833C2.41669 18.4657 12.5667 27.2274 13.7194 28.2061L14.5 28.8659L15.2806 28.2061C16.4334 27.2274 26.5834 18.4657 26.5834 12.0833C26.5798 8.87971 25.3056 5.80831 23.0403 3.54301C20.775 1.27771 17.7036 0.00351818 14.5 0V0ZM14.5 18.125C13.3051 18.125 12.137 17.7707 11.1435 17.1068C10.1499 16.4429 9.37553 15.4993 8.91825 14.3954C8.46097 13.2914 8.34132 12.0766 8.57444 10.9047C8.80756 9.73269 9.38297 8.65617 10.2279 7.81123C11.0729 6.96629 12.1494 6.39087 13.3214 6.15776C14.4933 5.92464 15.7081 6.04428 16.8121 6.50156C17.916 6.95884 18.8596 7.73322 19.5235 8.72676C20.1874 9.72031 20.5417 10.8884 20.5417 12.0833C20.5398 13.6851 19.9026 15.2207 18.77 16.3533C17.6374 17.4859 16.1018 18.1231 14.5 18.125Z" fill="#4376FF"/>
<path d="M14.5 15.7083C16.502 15.7083 18.125 14.0853 18.125 12.0833C18.125 10.0812 16.502 8.45825 14.5 8.45825C12.498 8.45825 10.875 10.0812 10.875 12.0833C10.875 14.0853 12.498 15.7083 14.5 15.7083Z" fill="#4376FF"/>
</g>
<defs>
<clipPath id="clip0_710_251">
<rect width="29" height="29" fill="white"/>
</clipPath>
</defs>
</svg>
