<svg width="29" height="29" viewBox="0 0 29 29" fill="none" xmlns="http://www.w3.org/2000/svg">
<g clip-path="url(#clip0_710_226)">
<path d="M14.4493 29.0097L13.607 28.2877C12.4458 27.3154 2.3067 18.5589 2.3067 12.1538C2.3067 5.44765 7.74312 0.0112305 14.4493 0.0112305C21.1554 0.0112305 26.5918 5.44765 26.5918 12.1538C26.5918 18.559 16.4528 27.3155 15.2964 28.2925L14.4493 29.0097ZM14.4493 2.63681C9.19567 2.64275 4.93828 6.90015 4.93233 12.1537C4.93233 16.1776 11.1703 22.6056 14.4493 25.5477C17.7283 22.6044 23.9662 16.1727 23.9662 12.1537C23.9602 6.90015 19.7029 2.64281 14.4493 2.63681Z" fill="#4376FF"/>
<path d="M14.4493 16.967C11.791 16.967 9.63605 14.812 9.63605 12.1538C9.63605 9.49553 11.791 7.34058 14.4493 7.34058C17.1075 7.34058 19.2625 9.49553 19.2625 12.1538C19.2625 14.812 17.1076 16.967 14.4493 16.967ZM14.4493 9.74712C13.1201 9.74712 12.0427 10.8246 12.0427 12.1537C12.0427 13.4829 13.1201 14.5603 14.4493 14.5603C15.7784 14.5603 16.8559 13.4829 16.8559 12.1537C16.8559 10.8246 15.7784 9.74712 14.4493 9.74712Z" fill="#4376FF"/>
</g>
<defs>
<clipPath id="clip0_710_226">
<rect width="29" height="29" fill="white"/>
</clipPath>
</defs>
</svg>
