<svg width="29" height="29" viewBox="0 0 29 29" fill="none" xmlns="http://www.w3.org/2000/svg">
<g clip-path="url(#clip0_710_221)">
<path d="M28.6459 26.9375L21.4334 19.7249C23.3989 17.3211 24.3653 14.2537 24.1326 11.1573C23.9 8.06093 22.4861 5.17241 20.1835 3.08923C17.8808 1.00605 14.8656 -0.112402 11.7615 -0.034789C8.65732 0.0428244 5.70175 1.31057 3.5061 3.50622C1.31045 5.70187 0.0427024 8.65744 -0.0349111 11.7616C-0.112525 14.8657 1.00593 17.881 3.08911 20.1836C5.17229 22.4862 8.06081 23.9001 11.1572 24.1327C14.2536 24.3654 17.321 23.399 19.7248 21.4335L26.9374 28.6461C27.1653 28.8662 27.4705 28.988 27.7873 28.9852C28.1041 28.9825 28.4072 28.8554 28.6312 28.6313C28.8553 28.4073 28.9823 28.1042 28.9851 27.7874C28.9878 27.4706 28.866 27.1654 28.6459 26.9375ZM12.0833 21.7501C10.1714 21.7501 8.30248 21.1832 6.7128 20.121C5.12313 19.0588 3.88413 17.5491 3.15248 15.7827C2.42083 14.0164 2.2294 12.0727 2.60239 10.1976C2.97538 8.32241 3.89604 6.59998 5.24795 5.24807C6.59986 3.89616 8.32229 2.9755 10.1974 2.60251C12.0726 2.22952 14.0162 2.42095 15.7826 3.1526C17.5489 3.88425 19.0587 5.12325 20.1209 6.71292C21.183 8.3026 21.75 10.1715 21.75 12.0834C21.7471 14.6463 20.7277 17.1034 18.9155 18.9156C17.1033 20.7279 14.6462 21.7472 12.0833 21.7501Z" fill="#4376FF"/>
</g>
<defs>
<clipPath id="clip0_710_221">
<rect width="29" height="29" fill="white"/>
</clipPath>
</defs>
</svg>
